<svg xmlns="http://www.w3.org/2000/svg" x="0px" y="0px" viewBox="6.9 8.4 50 50">

    <g>
        <g stroke="none" stroke-width="1" fill="none" fill-rule="evenodd" name="border"
            transform="translate(0,0)">
            <g fill="#000000">
                <path
                    d="M39.44,19.95 L41.54,33.91 C44.87,34.65 47,35.76 47,37 C47,39.21 40.28,41 32,41 C23.72,41 17,39.21 17,37 C17,35.76 19.13,34.65 22.46,33.91 L24.56,19.95 C22.37,19.21 21,18.17 21,17 C21,14.79 25.92,13 32,13 C38.08,13 43,14.79 43,17 C43,18.17 41.63,19.21 39.44,19.95 Z"
                    transform="translate(32.0, 33.5) rotate(45.0) translate(-32.0, -33.5) " />
            </g>
        </g>
        <g stroke="none" stroke-width="1" fill="none" fill-rule="evenodd" name="content"
            transform="translate(1.5,1) scale(0.95)">
            <g fill="#FF0000">
                <path
                    d="M39.44,19.95 L41.54,33.91 C44.87,34.65 47,35.76 47,37 C47,39.21 40.28,41 32,41 C23.72,41 17,39.21 17,37 C17,35.76 19.13,34.65 22.46,33.91 L24.56,19.95 C22.37,19.21 21,18.17 21,17 C21,14.79 25.92,13 32,13 C38.08,13 43,14.79 43,17 C43,18.17 41.63,19.21 39.44,19.95 Z"
                    transform="translate(32.0, 33.5) rotate(45.0) translate(-32.0, -33.5) " />
            </g>
        </g>
    </g>
</svg>